<svg width="29" height="28" xmlns="http://www.w3.org/2000/svg"><path d="M18.77 21.222V3.859a.843.843 0 0 0-1.398-.634l-5.217 4.571c-.365.32-.575.783-.575 1.268v7.257c0 .506.227.985.619 1.305l5.195 4.248a.843.843 0 0 0 1.376-.652zM8.62 16.277V9.143a.843.843 0 0 0-.844-.843h-.594c-.669 0-1.283.393-1.516 1.02-.928 2.494-.85 4.243.014 6.727.227.653.855 1.073 1.546 1.073h.55a.843.843 0 0 0 .843-.843zM21.308 14.273v-2.706c0-.575.556-.922.93-.485.443.515.762 1.219.762 1.838 0 .62-.32 1.323-.761 1.838-.375.437-.93.09-.93-.485z"/><path d="M18.77 21.222V3.859a.843.843 0 0 0-1.398-.634l-5.217 4.571c-.365.32-.575.783-.575 1.268v7.257c0 .506.227.985.619 1.305l5.195 4.248a.843.843 0 0 0 1.376-.652zM8.62 16.277V9.143a.843.843 0 0 0-.844-.843h-.594c-.669 0-1.283.393-1.516 1.02-.928 2.494-.85 4.243.014 6.727.227.653.855 1.073 1.546 1.073h.55a.843.843 0 0 0 .843-.843zM21.308 14.273v-2.706c0-.575.556-.922.93-.485.443.515.762 1.219.762 1.838 0 .62-.32 1.323-.761 1.838-.375.437-.93.09-.93-.485z" stroke-width="1.686"/><path d="M1.353 26.76a1.676 1.676 0 0 1 .09-2.291l23.432-23.06a1.544 1.544 0 0 1 2.174 2.193L3.804 26.848a1.676 1.676 0 0 1-2.451-.087z" stroke-width="1.2"/></svg>