<svg width="20" height="21" xmlns="http://www.w3.org/2000/svg"><path d="M14.77 19.222V1.859a.843.843 0 0 0-1.398-.634L8.155 5.796c-.365.32-.575.783-.575 1.268v7.257c0 .506.227.985.619 1.305l5.195 4.248a.843.843 0 0 0 1.376-.652zM4.62 14.277V7.143a.843.843 0 0 0-.844-.843h-.594c-.669 0-1.283.393-1.516 1.02-.928 2.494-.85 4.243.014 6.727.227.652.855 1.073 1.546 1.073h.55a.843.843 0 0 0 .843-.843zM17.308 12.273V9.567c0-.575.556-.922.93-.485.443.515.762 1.219.762 1.838 0 .62-.32 1.323-.761 1.838-.375.437-.93.09-.93-.485z"/><path d="M14.77 19.222V1.859a.843.843 0 0 0-1.398-.634L8.155 5.796c-.365.32-.575.783-.575 1.268v7.257c0 .506.227.985.619 1.305l5.195 4.248a.843.843 0 0 0 1.376-.652zM4.62 14.277V7.143a.843.843 0 0 0-.844-.843h-.594c-.669 0-1.283.393-1.516 1.02-.928 2.494-.85 4.243.014 6.727.227.652.855 1.073 1.546 1.073h.55a.843.843 0 0 0 .843-.843zM17.308 12.273V9.567c0-.575.556-.922.93-.485.443.515.762 1.219.762 1.838 0 .62-.32 1.323-.761 1.838-.375.437-.93.09-.93-.485z" stroke-width="1.686"/></svg>