<svg width="24" height="24" viewBox="0 0 24 24" fill="none" xmlns="http://www.w3.org/2000/svg">
<path d="M0 0L0.862745 5.17647L3.01961 3.01961L0 0Z" transform="translate(1 1)" fill="white"/>
<path d="M5.17647 0.862745L0 0L3.01961 3.01961L5.17647 0.862745Z" transform="translate(1 1)" fill="white"/>
<path d="M22 22L21.1373 16.8235L18.9804 18.9804L22 22Z" transform="translate(1 1)" fill="white"/>
<path d="M16.8235 21.1373L22 22L18.9804 18.9804L16.8235 21.1373Z" transform="translate(1 1)" fill="white"/>
<path d="M22 0L21.1373 5.17647L18.9804 3.01961L22 0Z" transform="translate(1 1)" fill="white"/>
<path d="M16.8235 0.862745L22 0L18.9804 3.01961L16.8235 0.862745Z" transform="translate(1 1)" fill="white"/>
<path d="M0 22L0.862745 16.8235L3.01961 18.9804L0 22Z" transform="translate(1 1)" fill="white"/>
<path d="M5.17647 21.1373L0 22L3.01961 18.9804L5.17647 21.1373Z" transform="translate(1 1)" fill="white"/>
<path d="M0.862745 5.17647L-0.0656257 5.3312C-0.00766631 5.67896 0.239785 5.96516 0.575519 6.07275C0.911254 6.18034 1.27896 6.09128 1.52826 5.84198L0.862745 5.17647ZM0 0L0.154728 -0.928371C-0.14509 -0.978341 -0.450584 -0.88044 -0.665512 -0.665512C-0.88044 -0.450584 -0.978341 -0.14509 -0.928371 0.154728L0 0ZM5.17647 0.862745L5.84198 1.52826C6.09128 1.27896 6.18034 0.911254 6.07275 0.575519C5.96516 0.239785 5.67896 -0.00766631 5.3312 -0.0656257L5.17647 0.862745ZM21.1373 16.8235L22.0656 16.6688C22.0077 16.321 21.7602 16.0348 21.4245 15.9273C21.0887 15.8197 20.721 15.9087 20.4717 16.158L21.1373 16.8235ZM22 22L21.8453 22.9284C22.1451 22.9783 22.4506 22.8804 22.6655 22.6655C22.8804 22.4506 22.9783 22.1451 22.9284 21.8453L22 22ZM16.8235 21.1373L16.158 20.4717C15.9087 20.721 15.8197 21.0887 15.9273 21.4245C16.0348 21.7602 16.321 22.0077 16.6688 22.0656L16.8235 21.1373ZM7.96194 9.29296C8.32949 9.66052 8.92541 9.66052 9.29296 9.29296C9.66052 8.92541 9.66052 8.32949 9.29296 7.96194L7.96194 9.29296ZM14.0381 12.707C13.6705 12.3395 13.0746 12.3395 12.707 12.707C12.3395 13.0746 12.3395 13.6705 12.707 14.0381L14.0381 12.707ZM21.1373 5.17647L20.4717 5.84198C20.721 6.09128 21.0887 6.18034 21.4245 6.07275C21.7602 5.96516 22.0077 5.67896 22.0656 5.3312L21.1373 5.17647ZM22 0L22.9284 0.154728C22.9783 -0.14509 22.8804 -0.450584 22.6655 -0.665512C22.4506 -0.88044 22.1451 -0.978341 21.8453 -0.928371L22 0ZM16.8235 0.862745L16.6688 -0.0656257C16.321 -0.00766631 16.0348 0.239785 15.9273 0.575519C15.8197 0.911254 15.9087 1.27896 16.158 1.52826L16.8235 0.862745ZM0.862745 16.8235L1.52826 16.158C1.27896 15.9087 0.911254 15.8197 0.575519 15.9273C0.239785 16.0348 -0.00766631 16.321 -0.0656257 16.6688L0.862745 16.8235ZM0 22L-0.928371 21.8453C-0.978341 22.1451 -0.88044 22.4506 -0.665512 22.6655C-0.450584 22.8804 -0.14509 22.9783 0.154728 22.9284L0 22ZM5.17647 21.1373L5.3312 22.0656C5.67896 22.0077 5.96516 21.7602 6.07275 21.4245C6.18034 21.0887 6.09128 20.721 5.84198 20.4717L5.17647 21.1373ZM12.707 7.96194C12.3395 8.32949 12.3395 8.92541 12.707 9.29296C13.0746 9.66052 13.6705 9.66052 14.0381 9.29296L12.707 7.96194ZM9.29296 14.0381C9.66052 13.6705 9.66052 13.0746 9.29296 12.707C8.92541 12.3395 8.32949 12.3395 7.96194 12.707L9.29296 14.0381ZM1.79112 5.02174L0.928371 -0.154728L-0.928371 0.154728L-0.0656257 5.3312L1.79112 5.02174ZM-0.154728 0.928371L5.02174 1.79112L5.3312 -0.0656257L0.154728 -0.928371L-0.154728 0.928371ZM1.52826 5.84198L3.68512 3.68512L2.3541 2.3541L0.197233 4.51096L1.52826 5.84198ZM3.68512 2.3541L0.665512 -0.665512L-0.665512 0.665512L2.3541 3.68512L3.68512 2.3541ZM3.68512 3.68512L5.84198 1.52826L4.51096 0.197233L2.3541 2.3541L3.68512 3.68512ZM20.2089 16.9783L21.0716 22.1547L22.9284 21.8453L22.0656 16.6688L20.2089 16.9783ZM22.1547 21.0716L16.9783 20.2089L16.6688 22.0656L21.8453 22.9284L22.1547 21.0716ZM20.4717 16.158L18.3149 18.3149L19.6459 19.6459L21.8028 17.489L20.4717 16.158ZM18.3149 19.6459L21.3345 22.6655L22.6655 21.3345L19.6459 18.3149L18.3149 19.6459ZM18.3149 18.3149L16.158 20.4717L17.489 21.8028L19.6459 19.6459L18.3149 18.3149ZM4.07959 5.41061L7.96194 9.29296L9.29296 7.96194L5.41061 4.07959L4.07959 5.41061ZM12.707 14.0381L16.5894 17.9204L17.9204 16.5894L14.0381 12.707L12.707 14.0381ZM22.0656 5.3312L22.9284 0.154728L21.0716 -0.154728L20.2089 5.02174L22.0656 5.3312ZM21.8453 -0.928371L16.6688 -0.0656257L16.9783 1.79112L22.1547 0.928371L21.8453 -0.928371ZM21.8028 4.51096L19.6459 2.3541L18.3149 3.68512L20.4717 5.84198L21.8028 4.51096ZM19.6459 3.68512L22.6655 0.665512L21.3345 -0.665512L18.3149 2.3541L19.6459 3.68512ZM19.6459 2.3541L17.489 0.197233L16.158 1.52826L18.3149 3.68512L19.6459 2.3541ZM-0.0656257 16.6688L-0.928371 21.8453L0.928371 22.1547L1.79112 16.9783L-0.0656257 16.6688ZM0.154728 22.9284L5.3312 22.0656L5.02174 20.2089L-0.154728 21.0716L0.154728 22.9284ZM0.197233 17.489L2.3541 19.6459L3.68512 18.3149L1.52826 16.158L0.197233 17.489ZM2.3541 18.3149L-0.665512 21.3345L0.665512 22.6655L3.68512 19.6459L2.3541 18.3149ZM2.3541 19.6459L4.51096 21.8028L5.84198 20.4717L3.68512 18.3149L2.3541 19.6459ZM16.5894 4.07959L12.707 7.96194L14.0381 9.29296L17.9204 5.41061L16.5894 4.07959ZM7.96194 12.707L4.07959 16.5894L5.41061 17.9204L9.29296 14.0381L7.96194 12.707Z" transform="translate(1 1)" fill="white"/>
</svg>
