<svg width="24" height="24" viewBox="0 0 24 24" fill="none" xmlns="http://www.w3.org/2000/svg">
<path d="M8.62745 8.62745L7.76471 3.45098L5.60784 5.60784L8.62745 8.62745Z" transform="translate(1 1)" fill="white"/>
<path d="M3.45098 7.76471L8.62745 8.62745L5.60784 5.60784L3.45098 7.76471Z" transform="translate(1 1)" fill="white"/>
<path d="M13.3725 13.3725L14.2353 18.549L16.3922 16.3922L13.3725 13.3725Z" transform="translate(1 1)" fill="white"/>
<path d="M18.549 14.2353L13.3725 13.3725L16.3922 16.3922L18.549 14.2353Z" transform="translate(1 1)" fill="white"/>
<path d="M13.3725 8.62745L14.2353 3.45098L16.3922 5.60784L13.3725 8.62745Z" transform="translate(1 1)" fill="white"/>
<path d="M18.549 7.76471L13.3725 8.62745L16.3922 5.60784L18.549 7.76471Z" transform="translate(1 1)" fill="white"/>
<path d="M8.62745 13.3725L7.76471 18.549L5.60784 16.3922L8.62745 13.3725Z" transform="translate(1 1)" fill="white"/>
<path d="M3.45098 14.2353L8.62745 13.3725L5.60784 16.3922L3.45098 14.2353Z" transform="translate(1 1)" fill="white"/>
<path d="M7.76471 3.45098L8.69308 3.29625C8.63512 2.9485 8.38767 2.66229 8.05193 2.5547C7.7162 2.44711 7.34849 2.53618 7.09919 2.78547L7.76471 3.45098ZM8.62745 8.62745L8.47272 9.55582C8.77254 9.60579 9.07804 9.50789 9.29296 9.29296C9.50789 9.07804 9.60579 8.77254 9.55582 8.47272L8.62745 8.62745ZM3.45098 7.76471L2.78547 7.09919C2.53618 7.34849 2.44711 7.7162 2.5547 8.05193C2.66229 8.38767 2.9485 8.63512 3.29625 8.69308L3.45098 7.76471ZM14.2353 18.549L13.3069 18.7037C13.3649 19.0515 13.6123 19.3377 13.9481 19.4453C14.2838 19.5529 14.6515 19.4638 14.9008 19.2145L14.2353 18.549ZM13.3725 13.3725L13.5273 12.4442C13.2275 12.3942 12.922 12.4921 12.707 12.707C12.4921 12.922 12.3942 13.2275 12.4442 13.5273L13.3725 13.3725ZM18.549 14.2353L19.2145 14.9008C19.4638 14.6515 19.5529 14.2838 19.4453 13.9481C19.3377 13.6123 19.0515 13.3649 18.7037 13.3069L18.549 14.2353ZM0.665512 -0.665512C0.29796 -1.03306 -0.29796 -1.03306 -0.665512 -0.665512C-1.03306 -0.29796 -1.03306 0.29796 -0.665512 0.665512L0.665512 -0.665512ZM21.3345 22.6655C21.702 23.0331 22.298 23.0331 22.6655 22.6655C23.0331 22.298 23.0331 21.702 22.6655 21.3345L21.3345 22.6655ZM14.2353 3.45098L14.9008 2.78547C14.6515 2.53618 14.2838 2.44711 13.9481 2.5547C13.6123 2.66229 13.3649 2.9485 13.3069 3.29625L14.2353 3.45098ZM13.3725 8.62745L12.4442 8.47272C12.3942 8.77254 12.4921 9.07804 12.707 9.29296C12.922 9.50789 13.2275 9.60579 13.5273 9.55582L13.3725 8.62745ZM18.549 7.76471L18.7037 8.69308C19.0515 8.63512 19.3377 8.38767 19.4453 8.05193C19.5529 7.7162 19.4638 7.34849 19.2145 7.09919L18.549 7.76471ZM7.76471 18.549L7.09919 19.2145C7.34849 19.4638 7.7162 19.5529 8.05193 19.4453C8.38767 19.3377 8.63512 19.0515 8.69308 18.7037L7.76471 18.549ZM8.62745 13.3725L9.55582 13.5273C9.60579 13.2275 9.50789 12.922 9.29296 12.707C9.07804 12.4921 8.77254 12.3942 8.47272 12.4442L8.62745 13.3725ZM3.45098 14.2353L3.29625 13.3069C2.9485 13.3649 2.66229 13.6123 2.5547 13.9481C2.44711 14.2838 2.53618 14.6515 2.78547 14.9008L3.45098 14.2353ZM22.6655 0.665512C23.0331 0.29796 23.0331 -0.29796 22.6655 -0.665512C22.298 -1.03306 21.702 -1.03306 21.3345 -0.665512L22.6655 0.665512ZM-0.665512 21.3345C-1.03306 21.702 -1.03306 22.298 -0.665512 22.6655C-0.29796 23.0331 0.29796 23.0331 0.665512 22.6655L-0.665512 21.3345ZM6.83633 3.60571L7.69908 8.78218L9.55582 8.47272L8.69308 3.29625L6.83633 3.60571ZM8.78218 7.69908L3.60571 6.83633L3.29625 8.69308L8.47272 9.55582L8.78218 7.69908ZM7.09919 2.78547L4.94233 4.94233L6.27336 6.27336L8.43022 4.11649L7.09919 2.78547ZM4.94233 6.27336L7.96194 9.29296L9.29296 7.96194L6.27336 4.94233L4.94233 6.27336ZM4.94233 4.94233L2.78547 7.09919L4.11649 8.43022L6.27336 6.27336L4.94233 4.94233ZM15.1637 18.3943L14.3009 13.2178L12.4442 13.5273L13.3069 18.7037L15.1637 18.3943ZM13.2178 14.3009L18.3943 15.1637L18.7037 13.3069L13.5273 12.4442L13.2178 14.3009ZM14.9008 19.2145L17.0577 17.0577L15.7266 15.7266L13.5698 17.8835L14.9008 19.2145ZM17.0577 15.7266L14.0381 12.707L12.707 14.0381L15.7266 17.0577L17.0577 15.7266ZM17.0577 17.0577L19.2145 14.9008L17.8835 13.5698L15.7266 15.7266L17.0577 17.0577ZM4.54786 3.21684L0.665512 -0.665512L-0.665512 0.665512L3.21684 4.54786L4.54786 3.21684ZM22.6655 21.3345L18.7832 17.4521L17.4521 18.7832L21.3345 22.6655L22.6655 21.3345ZM13.3069 3.29625L12.4442 8.47272L14.3009 8.78218L15.1637 3.60571L13.3069 3.29625ZM13.5273 9.55582L18.7037 8.69308L18.3943 6.83633L13.2178 7.69908L13.5273 9.55582ZM13.5698 4.11649L15.7266 6.27336L17.0577 4.94233L14.9008 2.78547L13.5698 4.11649ZM15.7266 4.94233L12.707 7.96194L14.0381 9.29296L17.0577 6.27336L15.7266 4.94233ZM15.7266 6.27336L17.8835 8.43022L19.2145 7.09919L17.0577 4.94233L15.7266 6.27336ZM8.69308 18.7037L9.55582 13.5273L7.69908 13.2178L6.83633 18.3943L8.69308 18.7037ZM8.47272 12.4442L3.29625 13.3069L3.60571 15.1637L8.78218 14.3009L8.47272 12.4442ZM8.43022 17.8835L6.27336 15.7266L4.94233 17.0577L7.09919 19.2145L8.43022 17.8835ZM6.27336 17.0577L9.29296 14.0381L7.96194 12.707L4.94233 15.7266L6.27336 17.0577ZM6.27336 15.7266L4.11649 13.5698L2.78547 14.9008L4.94233 17.0577L6.27336 15.7266ZM18.7832 4.54786L22.6655 0.665512L21.3345 -0.665512L17.4521 3.21684L18.7832 4.54786ZM0.665512 22.6655L4.54786 18.7832L3.21684 17.4521L-0.665512 21.3345L0.665512 22.6655Z" transform="translate(1 1)" fill="white"/>
</svg>
