<svg width="17" height="21" viewBox="0 0 17 21" version="1.1" xmlns="http://www.w3.org/2000/svg" xmlns:xlink="http://www.w3.org/1999/xlink">
<g id="Canvas" fill="none">
<path id="Vector 2" d="M 12.5 0C 13.4665 0 14.25 0.783502 14.25 1.75C 14.25 1.75 14.25 1.75 14.25 1.75L 14.25 17.25C 14.25 17.25 14.25 17.25 14.25 17.25C 14.25 18.2165 13.4665 19 12.5 19C 11.5335 19 10.75 18.2165 10.75 17.25C 10.75 17.25 10.75 17.25 10.75 17.25L 10.75 1.75C 10.75 1.75 10.75 1.75 10.75 1.75C 10.75 0.783502 11.5335 0 12.5 0ZM 3.5 1.75L 3.5 17.25C 3.5 18.2165 2.7165 19 1.75 19L 1.75 19C 0.783502 19 0 18.2165 0 17.25L 0 1.75C 0 0.783502 0.783502 0 1.75 0L 1.75 0C 2.7165 0 3.5 0.783502 3.5 1.75Z" transform="translate(1 1)" stroke="white" stroke-width="2"/>
</g>
</svg>
